<?xml version="1.0" encoding="utf-8"?>
<!-- Generator: Adobe Illustrator 16.0.3, SVG Export Plug-In . SVG Version: 6.00 Build 0)  -->
<!DOCTYPE svg PUBLIC "-//W3C//DTD SVG 1.1//EN" "http://www.w3.org/Graphics/SVG/1.1/DTD/svg11.dtd">
<svg version="1.1" id="Layer_1" xmlns="http://www.w3.org/2000/svg" xmlns:xlink="http://www.w3.org/1999/xlink" x="0px" y="0px"
	 width="246px" height="41px" viewBox="0 0 246 41" enable-background="new 0 0 246 41" xml:space="preserve" role="img">
<g>
	<g>
		<path fill="#FFFFFF" d="M0,1.188h65.457v40.023H0V1.188z"/>
	</g>
	<g>
		<path fill="#105EAB" d="M0.643,1.843h64.17V40.52H0.643V1.843z"/>
	</g>
	<polygon fill="#FFFFFF" points="26.985,40.512 64.8,2.204 64.8,1.821 64.61,1.821 26.419,40.512 	"/>
	<polygon fill="#FFFFFF" points="3.144,40.512 5.7,1.821 5.297,1.821 2.741,40.512 	"/>
	<polygon fill="#FFFFFF" points="5.188,40.512 10.709,1.821 10.301,1.821 4.783,40.512 	"/>
	<polygon fill="#FFFFFF" points="7.377,40.512 16.012,1.821 15.604,1.821 6.963,40.512 	"/>
	<polygon fill="#FFFFFF" points="9.779,40.512 22.105,1.821 21.69,1.821 9.36,40.512 	"/>
	<polygon fill="#FFFFFF" points="12.045,40.512 27.881,1.821 27.446,1.821 11.609,40.512 	"/>
	<polygon fill="#FFFFFF" points="14.652,40.512 34.459,1.821 34.017,1.821 14.199,40.512 	"/>
	<polygon fill="#FFFFFF" points="44.356,1.821 43.875,1.821 18.231,40.512 18.711,40.512 	"/>
	<polygon fill="#FFFFFF" points="53.5,1.821 52.995,1.821 21.819,40.512 22.334,40.512 	"/>
	<polygon fill="#FFFFFF" points="64.8,16.461 64.8,15.953 33.887,40.512 34.524,40.512 	"/>
	<polygon fill="#FFFFFF" points="64.8,27.103 64.8,26.633 42.591,40.512 43.351,40.512 	"/>
	<polygon fill="#FFFFFF" points="64.8,37.145 64.8,36.699 56.628,40.512 57.576,40.512 	"/>
	<path fill="#FFFFFF" d="M19.797,25.082c-0.794,0.761-2.79,1.58-4.255,1.566c-4.264-0.004-6.255-3.628-6.291-9.162
		c0.029-5.237,2.178-8.569,5.871-8.577c2.64,0.003,3.924,1.535,4.625,2.448l0.772,1.028v-4.76l-0.247-0.115
		c-1.522-0.708-3.454-1.039-5.216-1.042C8.427,6.483,3.369,11.235,3.358,17.943c0.011,6.878,4.792,11.201,11.64,11.21h0.036
		c3.4,0,5.144-1.025,6.064-1.73l0.273-0.207l-1.135-2.546L19.797,25.082z M38.372,8.943c-2.218-1.627-4.996-2.109-7.366-2.109H22.91
		v21.93h8.623c4.183-0.01,10.645-2.665,10.655-11.025C42.196,13.361,40.597,10.57,38.372,8.943z M28.235,26.22V9.311
		c3.915,0.104,8.083,0.582,8.157,8.517C36.329,25.534,32.065,26.115,28.235,26.22z M60.656,24.67l-0.439,0.412
		c-0.794,0.763-2.784,1.58-4.248,1.566c-4.263,0-6.256-3.628-6.292-9.16c0.028-5.242,2.181-8.573,5.879-8.58
		c2.635,0.003,3.922,1.536,4.61,2.448l0.776,1.042V7.625L60.695,7.51c-1.515-0.709-3.447-1.038-5.216-1.041
		c-6.627,0.014-11.674,4.765-11.684,11.474c0.01,6.88,4.78,11.198,11.634,11.21h0.052c3.389,0,5.126-1.027,6.047-1.73l0.273-0.207
		L60.656,24.67z"/>
	<path fill="#0033A0" d="M65.956,39.438h0.773v0.115h-0.324v0.829h-0.123v-0.829h-0.327V39.438z"/>
	<path fill="#0033A0" d="M67.629,40.383v-0.567c0-0.02,0-0.141,0-0.232l0,0l-0.27,0.8h-0.126l-0.266-0.8h-0.004
		c0,0.092,0.004,0.213,0.004,0.232v0.567h-0.126v-0.944h0.18l0.276,0.799h0.004l0.266-0.799h0.184v0.944H67.629z"/>
</g>
<g>
	<path d="M69.74,7.554c0.104-0.937,0.423-1.762,0.955-2.478c0.532-0.715,1.197-1.264,1.994-1.647
		c0.796-0.384,1.632-0.576,2.506-0.576c0.478,0,0.945,0.058,1.402,0.174c0.457,0.116,0.894,0.291,1.31,0.527
		c0.416,0.235,0.804,0.533,1.162,0.893c0.359,0.359,0.674,0.783,0.945,1.27h-1.169c-0.304-0.399-0.652-0.735-1.047-1.009
		c-0.394-0.273-0.809-0.476-1.242-0.605c-0.434-0.129-0.868-0.195-1.301-0.195c-0.58,0-1.14,0.104-1.679,0.313
		c-0.539,0.208-1.021,0.509-1.444,0.9s-0.757,0.863-1.002,1.412c-0.245,0.549-0.367,1.151-0.367,1.806
		c0.009,0.841,0.223,1.598,0.642,2.269c0.418,0.671,0.969,1.194,1.65,1.569c0.682,0.375,1.405,0.568,2.168,0.579
		c0.448-0.011,0.893-0.087,1.336-0.229c0.443-0.142,0.864-0.354,1.263-0.638c0.399-0.286,0.754-0.642,1.065-1.074h1.169
		c-0.383,0.658-0.832,1.204-1.344,1.641c-0.512,0.437-1.064,0.759-1.654,0.97c-0.59,0.209-1.202,0.315-1.835,0.315
		c-0.698,0-1.378-0.129-2.041-0.387c-0.662-0.259-1.257-0.631-1.785-1.116c-0.528-0.485-0.944-1.067-1.248-1.747
		c-0.304-0.68-0.456-1.421-0.456-2.224C69.695,8.026,69.71,7.789,69.74,7.554z"/>
	<path d="M81.037,9.621c0.016-0.624,0.139-1.185,0.367-1.685c0.229-0.498,0.536-0.923,0.924-1.275
		c0.387-0.351,0.816-0.619,1.289-0.802c0.471-0.184,0.956-0.278,1.452-0.285c0.666,0,1.311,0.162,1.935,0.485
		s1.135,0.81,1.533,1.458s0.597,1.421,0.597,2.319v0.198h-7.042c0.046,0.578,0.224,1.07,0.532,1.477
		c0.309,0.407,0.683,0.712,1.122,0.914c0.439,0.201,0.872,0.303,1.296,0.303c0.378,0,0.76-0.076,1.145-0.227
		c0.385-0.151,0.726-0.357,1.021-0.621c0.295-0.263,0.505-0.555,0.628-0.875h1.082c-0.218,0.6-0.536,1.105-0.955,1.52
		c-0.418,0.414-0.887,0.72-1.405,0.919c-0.519,0.198-1.042,0.297-1.571,0.297c-0.693-0.028-1.342-0.213-1.946-0.555
		c-0.604-0.342-1.089-0.821-1.455-1.438S81.037,10.421,81.037,9.621z M88.106,9.096c-0.088-0.451-0.273-0.867-0.555-1.25
		c-0.282-0.383-0.637-0.688-1.064-0.917c-0.428-0.229-0.892-0.342-1.391-0.342c-0.668,0-1.223,0.158-1.667,0.475
		c-0.443,0.316-0.769,0.67-0.978,1.062c-0.209,0.391-0.33,0.714-0.362,0.973H88.106z"/>
	<path d="M90.49,13.57V5.773h0.999v1.168c0.257-0.429,0.608-0.759,1.054-0.991c0.446-0.232,0.92-0.348,1.423-0.348
		c0.438,0,0.861,0.079,1.27,0.236c0.408,0.158,0.773,0.387,1.096,0.689c0.322,0.301,0.579,0.678,0.771,1.127
		c0.191,0.451,0.287,0.954,0.287,1.511v4.405h-1.026V9.166c0-0.539-0.116-0.998-0.346-1.38c-0.231-0.382-0.534-0.667-0.908-0.857
		c-0.375-0.191-0.774-0.286-1.199-0.286c-0.415,0-0.802,0.091-1.163,0.273c-0.359,0.182-0.649,0.454-0.871,0.818
		c-0.222,0.362-0.333,0.796-0.333,1.303v4.534H90.49z"/>
	<path d="M99.663,13.57V6.726h-1.639V5.773h1.639v-2.75h1.054v2.75h1.809v0.953h-1.809v6.844H99.663z"/>
	<path d="M102.775,9.621c0.016-0.624,0.139-1.185,0.368-1.685c0.228-0.498,0.536-0.923,0.923-1.275
		c0.387-0.351,0.817-0.619,1.289-0.802c0.472-0.184,0.957-0.278,1.453-0.285c0.666,0,1.311,0.162,1.935,0.485
		c0.624,0.324,1.135,0.81,1.533,1.458c0.397,0.648,0.597,1.421,0.597,2.319v0.198h-7.042c0.046,0.578,0.224,1.07,0.532,1.477
		c0.309,0.407,0.683,0.712,1.123,0.914c0.44,0.201,0.872,0.303,1.296,0.303c0.378,0,0.76-0.076,1.145-0.227
		c0.385-0.151,0.725-0.357,1.021-0.621c0.295-0.263,0.505-0.555,0.628-0.875h1.082c-0.219,0.6-0.536,1.105-0.956,1.52
		c-0.418,0.414-0.886,0.72-1.405,0.919c-0.519,0.198-1.042,0.297-1.571,0.297c-0.693-0.028-1.343-0.213-1.947-0.555
		c-0.604-0.342-1.088-0.821-1.454-1.438C102.958,11.13,102.775,10.421,102.775,9.621z M109.845,9.096
		c-0.088-0.451-0.273-0.867-0.555-1.25c-0.282-0.383-0.637-0.688-1.065-0.917c-0.428-0.229-0.891-0.342-1.39-0.342
		c-0.667,0-1.223,0.158-1.667,0.475c-0.443,0.316-0.769,0.67-0.978,1.062c-0.209,0.391-0.33,0.714-0.362,0.973H109.845z"/>
	<path d="M112.235,13.57V5.745h0.984v1.169c0.434-0.893,1.193-1.339,2.279-1.339v1.068c-0.245,0-0.5,0.052-0.765,0.157
		c-0.264,0.105-0.507,0.253-0.729,0.445c-0.221,0.192-0.398,0.417-0.53,0.675c-0.133,0.257-0.199,0.535-0.199,0.834v4.816H112.235z"
		/>
	<path d="M116.157,8.056c-0.01-0.077-0.014-0.182-0.014-0.313c0-0.452,0.112-0.842,0.338-1.166c0.225-0.325,0.507-0.568,0.848-0.73
		c0.34-0.163,0.672-0.244,0.994-0.244c0.263,0,0.524,0.043,0.784,0.132c0.26,0.087,0.498,0.218,0.712,0.393
		c0.215,0.174,0.389,0.395,0.522,0.661c0.134,0.268,0.208,0.57,0.221,0.909h-1.068c-0.019-0.374-0.139-0.647-0.36-0.822
		c-0.222-0.173-0.491-0.26-0.809-0.26c-0.281,0-0.542,0.091-0.783,0.274c-0.242,0.184-0.371,0.453-0.386,0.808
		c0.003,0.009,0.016,0.067,0.04,0.175c0.025,0.107,0.041,0.178,0.047,0.211c0.072,0.257,0.317,0.472,0.734,0.645
		c0.418,0.173,0.838,0.339,1.262,0.499c0.423,0.159,0.781,0.392,1.073,0.7c0.292,0.309,0.438,0.748,0.438,1.319
		c0,0.097-0.009,0.24-0.032,0.428c-0.058,0.48-0.216,0.875-0.475,1.186c-0.259,0.312-0.563,0.536-0.914,0.674
		c-0.351,0.138-0.695,0.207-1.034,0.207c-0.472,0-0.892-0.108-1.264-0.324c-0.372-0.216-0.66-0.51-0.866-0.883
		c-0.205-0.374-0.308-0.788-0.308-1.242l1.057-0.032c0.014,0.448,0.165,0.811,0.454,1.089c0.289,0.278,0.618,0.424,0.987,0.438
		c0.371-0.032,0.687-0.175,0.947-0.429c0.261-0.254,0.392-0.562,0.392-0.924c0-0.32-0.105-0.61-0.314-0.872
		c-0.21-0.261-0.533-0.446-0.969-0.555c-0.595-0.16-1.103-0.384-1.524-0.672C116.466,9.048,116.223,8.622,116.157,8.056z"/>
	<path d="M126.266,13.57V6.743h-1.197V5.804h1.197c0-1.835,1.001-2.752,3.005-2.752v0.971c-0.594,0-1.069,0.121-1.427,0.36
		c-0.357,0.24-0.541,0.676-0.553,1.307c0.019,0.037,0.028,0.075,0.028,0.115h1.951v0.939h-1.951v6.827H126.266z"/>
	<path d="M129.484,9.537c0.006-0.512,0.114-1.007,0.322-1.481c0.209-0.476,0.501-0.897,0.876-1.265s0.818-0.658,1.332-0.87
		c0.515-0.212,1.071-0.318,1.672-0.318c0.57,0,1.155,0.163,1.752,0.49c0.598,0.328,1.101,0.775,1.508,1.342
		c0.409,0.567,0.638,1.192,0.69,1.874c0,0.034,0.001,0.086,0.006,0.154c0.006,0.066,0.007,0.115,0.007,0.145
		c0,0.575-0.107,1.114-0.324,1.617c-0.214,0.502-0.515,0.943-0.9,1.322c-0.385,0.379-0.824,0.673-1.319,0.882
		c-0.496,0.208-1.017,0.313-1.561,0.313c-0.659,0-1.303-0.165-1.93-0.494c-0.628-0.329-1.14-0.813-1.537-1.453
		C129.683,11.155,129.484,10.403,129.484,9.537z M130.511,9.592c0,0.624,0.139,1.169,0.416,1.637
		c0.276,0.469,0.649,0.833,1.118,1.094c0.468,0.261,0.979,0.406,1.531,0.433c0.461,0,0.923-0.124,1.383-0.372
		s0.841-0.612,1.143-1.093c0.302-0.481,0.452-1.048,0.452-1.699c0-0.378-0.079-0.746-0.236-1.104
		c-0.157-0.358-0.376-0.678-0.655-0.959c-0.278-0.283-0.599-0.505-0.963-0.668c-0.364-0.164-0.738-0.245-1.123-0.245
		c-0.525,0.012-1.02,0.146-1.486,0.403c-0.466,0.257-0.844,0.61-1.133,1.06C130.668,8.528,130.52,9.033,130.511,9.592z"/>
	<path d="M139.03,13.57V5.745h0.984v1.169c0.434-0.893,1.193-1.339,2.279-1.339v1.068c-0.246,0-0.501,0.052-0.766,0.157
		s-0.508,0.253-0.729,0.445c-0.221,0.192-0.397,0.417-0.529,0.675c-0.134,0.257-0.198,0.535-0.198,0.834v4.816H139.03z"/>
	<path d="M147.154,13.57V3.023h2.867c0.988,0,1.862,0.14,2.621,0.42c0.758,0.279,1.392,0.667,1.9,1.164
		c0.51,0.496,0.89,1.067,1.141,1.713c0.253,0.646,0.379,1.338,0.379,2.076c-0.008,0.784-0.162,1.499-0.466,2.143
		c-0.302,0.646-0.715,1.194-1.238,1.648c-0.523,0.455-1.111,0.8-1.763,1.032c-0.654,0.233-1.327,0.35-2.021,0.35H147.154z
		 M148.209,3.963V12.6h1.625c1.463,0,2.668-0.344,3.614-1.031c0.947-0.688,1.467-1.745,1.559-3.172c0-0.587-0.101-1.146-0.302-1.679
		c-0.203-0.532-0.509-1.005-0.92-1.419c-0.412-0.414-0.934-0.74-1.566-0.978c-0.631-0.237-1.364-0.357-2.197-0.357H148.209z"/>
	<path d="M157.595,4.834V3.023h1.054v1.811H157.595z M157.595,13.57V5.773h1.054v7.797H157.595z"/>
	<path d="M160.189,8.056c-0.009-0.077-0.014-0.182-0.014-0.313c0-0.452,0.113-0.842,0.338-1.166c0.226-0.325,0.507-0.568,0.849-0.73
		c0.34-0.163,0.671-0.244,0.993-0.244c0.263,0,0.524,0.043,0.784,0.132c0.26,0.087,0.497,0.218,0.712,0.393s0.389,0.395,0.521,0.661
		c0.135,0.268,0.208,0.57,0.222,0.909h-1.068c-0.019-0.374-0.139-0.647-0.359-0.822c-0.223-0.173-0.491-0.26-0.81-0.26
		c-0.28,0-0.541,0.091-0.783,0.274c-0.241,0.184-0.369,0.453-0.386,0.808c0.003,0.009,0.017,0.067,0.04,0.175
		c0.024,0.107,0.04,0.178,0.047,0.211c0.072,0.257,0.316,0.472,0.733,0.645c0.418,0.173,0.839,0.339,1.262,0.499
		c0.424,0.159,0.782,0.392,1.073,0.7c0.293,0.309,0.438,0.748,0.438,1.319c0,0.097-0.01,0.24-0.031,0.428
		c-0.058,0.48-0.216,0.875-0.475,1.186c-0.259,0.312-0.563,0.536-0.914,0.674c-0.351,0.138-0.695,0.207-1.034,0.207
		c-0.472,0-0.893-0.108-1.265-0.324c-0.371-0.216-0.659-0.51-0.864-0.883s-0.308-0.788-0.308-1.242l1.057-0.032
		c0.014,0.448,0.164,0.811,0.453,1.089s0.619,0.424,0.987,0.438c0.371-0.032,0.688-0.175,0.948-0.429
		c0.262-0.254,0.391-0.562,0.391-0.924c0-0.32-0.104-0.61-0.314-0.872s-0.532-0.446-0.969-0.555
		c-0.594-0.16-1.102-0.384-1.524-0.672C160.499,9.048,160.256,8.622,160.189,8.056z"/>
	<path d="M165.695,9.621c0.016-0.624,0.139-1.185,0.367-1.685c0.228-0.498,0.536-0.923,0.923-1.275
		c0.388-0.351,0.817-0.619,1.289-0.802c0.473-0.184,0.956-0.278,1.453-0.285c0.666,0,1.312,0.162,1.935,0.485
		c0.625,0.324,1.135,0.81,1.532,1.458c0.398,0.648,0.598,1.421,0.598,2.319v0.198h-7.043c0.047,0.578,0.224,1.07,0.532,1.477
		c0.309,0.407,0.683,0.712,1.123,0.914c0.438,0.201,0.871,0.303,1.296,0.303c0.378,0,0.759-0.076,1.145-0.227
		c0.385-0.151,0.725-0.357,1.021-0.621c0.297-0.263,0.506-0.555,0.629-0.875h1.082c-0.219,0.6-0.537,1.105-0.955,1.52
		c-0.42,0.414-0.889,0.72-1.406,0.919c-0.518,0.198-1.042,0.297-1.57,0.297c-0.694-0.028-1.344-0.213-1.947-0.555
		c-0.604-0.342-1.089-0.821-1.454-1.438S165.695,10.421,165.695,9.621z M172.766,9.096c-0.089-0.451-0.273-0.867-0.555-1.25
		c-0.283-0.383-0.638-0.688-1.066-0.917c-0.427-0.229-0.89-0.342-1.389-0.342c-0.668,0-1.225,0.158-1.667,0.475
		c-0.443,0.316-0.77,0.67-0.978,1.062c-0.209,0.391-0.33,0.714-0.362,0.973H172.766z"/>
	<path d="M174.762,9.722c0.006-0.622,0.127-1.192,0.365-1.708c0.236-0.518,0.554-0.958,0.952-1.32
		c0.397-0.361,0.844-0.638,1.342-0.831s1.003-0.289,1.516-0.289c1.427,0.034,2.448,0.605,3.065,1.712V5.773h1.026v7.797h-1.026
		v-1.482c-0.293,0.523-0.716,0.93-1.271,1.218c-0.555,0.289-1.182,0.434-1.882,0.434c-0.534-0.014-1.045-0.117-1.535-0.308
		c-0.488-0.191-0.927-0.462-1.313-0.815c-0.386-0.352-0.688-0.776-0.909-1.271C174.87,10.853,174.762,10.312,174.762,9.722z
		 M175.843,9.479c0,0.64,0.141,1.206,0.424,1.699c0.281,0.493,0.653,0.871,1.115,1.135c0.461,0.265,0.95,0.403,1.468,0.415
		c0.596,0,1.134-0.144,1.614-0.431c0.48-0.286,0.856-0.662,1.13-1.127c0.271-0.465,0.408-0.948,0.408-1.449
		c0-0.553-0.132-1.062-0.396-1.527c-0.265-0.467-0.629-0.839-1.092-1.119c-0.461-0.28-0.97-0.434-1.521-0.461
		c-0.602,0-1.143,0.149-1.625,0.448c-0.483,0.3-0.857,0.674-1.124,1.124C175.977,8.638,175.843,9.067,175.843,9.479z"/>
	<path d="M184.563,8.056c-0.009-0.077-0.014-0.182-0.014-0.313c0-0.452,0.113-0.842,0.338-1.166c0.225-0.325,0.508-0.568,0.848-0.73
		c0.34-0.163,0.671-0.244,0.993-0.244c0.264,0,0.524,0.043,0.784,0.132c0.26,0.087,0.497,0.218,0.713,0.393
		c0.214,0.174,0.388,0.395,0.522,0.661c0.133,0.268,0.207,0.57,0.22,0.909h-1.067c-0.019-0.374-0.139-0.647-0.36-0.822
		c-0.222-0.173-0.49-0.26-0.81-0.26c-0.28,0-0.541,0.091-0.782,0.274c-0.242,0.184-0.37,0.453-0.386,0.808
		c0.002,0.009,0.015,0.067,0.039,0.175c0.024,0.107,0.04,0.178,0.048,0.211c0.071,0.257,0.315,0.472,0.734,0.645
		c0.416,0.173,0.838,0.339,1.262,0.499c0.422,0.159,0.78,0.392,1.073,0.7c0.291,0.309,0.438,0.748,0.438,1.319
		c0,0.097-0.011,0.24-0.031,0.428c-0.058,0.48-0.216,0.875-0.476,1.186c-0.259,0.312-0.563,0.536-0.914,0.674
		c-0.35,0.138-0.695,0.207-1.034,0.207c-0.471,0-0.893-0.108-1.264-0.324c-0.371-0.216-0.66-0.51-0.865-0.883
		s-0.308-0.788-0.308-1.242l1.057-0.032c0.014,0.448,0.165,0.811,0.453,1.089c0.29,0.278,0.619,0.424,0.988,0.438
		c0.371-0.032,0.687-0.175,0.948-0.429c0.261-0.254,0.391-0.562,0.391-0.924c0-0.32-0.104-0.61-0.314-0.872s-0.533-0.446-0.97-0.555
		c-0.594-0.16-1.103-0.384-1.524-0.672C184.871,9.048,184.628,8.622,184.563,8.056z"/>
	<path d="M190.068,9.621c0.016-0.624,0.138-1.185,0.367-1.685c0.228-0.498,0.536-0.923,0.923-1.275
		c0.388-0.351,0.816-0.619,1.289-0.802s0.956-0.278,1.452-0.285c0.667,0,1.311,0.162,1.935,0.485s1.136,0.81,1.533,1.458
		s0.598,1.421,0.598,2.319v0.198h-7.043c0.046,0.578,0.224,1.07,0.532,1.477c0.308,0.407,0.683,0.712,1.122,0.914
		c0.439,0.201,0.871,0.303,1.296,0.303c0.378,0,0.759-0.076,1.145-0.227c0.385-0.151,0.726-0.357,1.021-0.621
		c0.296-0.263,0.506-0.555,0.628-0.875h1.082c-0.218,0.6-0.536,1.105-0.955,1.52c-0.42,0.414-0.888,0.72-1.406,0.919
		c-0.518,0.198-1.041,0.297-1.57,0.297c-0.693-0.028-1.343-0.213-1.947-0.555c-0.604-0.342-1.089-0.821-1.454-1.438
		S190.068,10.421,190.068,9.621z M197.138,9.096c-0.088-0.451-0.272-0.867-0.555-1.25c-0.282-0.383-0.637-0.688-1.065-0.917
		c-0.428-0.229-0.891-0.342-1.391-0.342c-0.667,0-1.223,0.158-1.665,0.475c-0.444,0.316-0.77,0.67-0.979,1.062
		c-0.209,0.391-0.329,0.714-0.361,0.973H197.138z"/>
	<path d="M69.655,21.59c0.104-0.938,0.422-1.762,0.955-2.478c0.532-0.715,1.197-1.263,1.994-1.647
		c0.796-0.385,1.632-0.576,2.507-0.576c0.478,0,0.945,0.058,1.402,0.174c0.457,0.116,0.893,0.292,1.31,0.527
		c0.417,0.235,0.804,0.533,1.162,0.893c0.359,0.359,0.673,0.782,0.945,1.27H78.76c-0.304-0.399-0.652-0.735-1.047-1.009
		s-0.808-0.476-1.243-0.606c-0.434-0.129-0.867-0.194-1.301-0.194c-0.58,0-1.14,0.104-1.679,0.313
		c-0.539,0.208-1.021,0.508-1.444,0.9c-0.423,0.392-0.757,0.862-1.002,1.413c-0.245,0.549-0.367,1.15-0.367,1.805
		c0.01,0.841,0.223,1.599,0.642,2.27c0.418,0.67,0.969,1.193,1.651,1.567c0.682,0.375,1.404,0.568,2.167,0.58
		c0.447-0.012,0.893-0.088,1.336-0.23c0.443-0.142,0.864-0.354,1.263-0.638c0.398-0.285,0.754-0.642,1.064-1.073h1.169
		c-0.382,0.657-0.83,1.204-1.343,1.641c-0.513,0.437-1.064,0.76-1.654,0.97c-0.591,0.21-1.203,0.315-1.835,0.315
		c-0.698,0-1.378-0.129-2.041-0.388c-0.662-0.259-1.257-0.631-1.785-1.115c-0.528-0.485-0.944-1.068-1.248-1.746
		c-0.304-0.681-0.456-1.422-0.456-2.225C69.609,22.062,69.625,21.824,69.655,21.59z"/>
	<path d="M80.944,23.573c0.006-0.513,0.115-1.007,0.323-1.482s0.501-0.896,0.875-1.265c0.375-0.367,0.819-0.658,1.333-0.87
		c0.514-0.212,1.072-0.318,1.672-0.318c0.57,0,1.155,0.164,1.752,0.491c0.597,0.327,1.1,0.773,1.508,1.341
		c0.409,0.567,0.638,1.192,0.689,1.874c0,0.034,0.002,0.086,0.007,0.153c0.004,0.066,0.008,0.114,0.008,0.146
		c0,0.575-0.108,1.113-0.325,1.616c-0.215,0.502-0.516,0.943-0.901,1.322s-0.825,0.674-1.32,0.882
		c-0.495,0.209-1.015,0.313-1.561,0.313c-0.659,0-1.302-0.165-1.929-0.494c-0.627-0.329-1.141-0.813-1.536-1.452
		C81.141,25.19,80.944,24.439,80.944,23.573z M81.97,23.628c0,0.623,0.138,1.169,0.416,1.637c0.277,0.469,0.65,0.833,1.119,1.095
		c0.469,0.261,0.979,0.405,1.531,0.433c0.461,0,0.922-0.124,1.383-0.372c0.459-0.249,0.841-0.612,1.143-1.094
		s0.452-1.047,0.452-1.698c0-0.379-0.079-0.746-0.237-1.104c-0.157-0.358-0.375-0.678-0.654-0.96
		c-0.278-0.282-0.6-0.505-0.963-0.667c-0.364-0.164-0.738-0.246-1.124-0.246c-0.524,0.012-1.02,0.146-1.486,0.404
		c-0.466,0.257-0.843,0.61-1.132,1.06S81.979,23.068,81.97,23.628z"/>
	<path d="M90.484,27.605v-7.796h0.998v1.168c0.258-0.429,0.609-0.76,1.055-0.992c0.445-0.231,0.919-0.348,1.422-0.348
		c0.439,0,0.862,0.079,1.27,0.236c0.408,0.158,0.774,0.387,1.096,0.69c0.322,0.301,0.58,0.676,0.771,1.126
		c0.191,0.451,0.287,0.954,0.287,1.511v4.404h-1.026v-4.404c0-0.538-0.115-0.998-0.346-1.38c-0.231-0.382-0.535-0.667-0.908-0.858
		c-0.375-0.189-0.775-0.285-1.199-0.285c-0.416,0-0.803,0.092-1.163,0.273c-0.359,0.183-0.649,0.455-0.871,0.818
		c-0.221,0.362-0.333,0.797-0.333,1.303v4.533H90.484z"/>
	<path d="M99.656,27.605v-6.844h-1.639v-0.953h1.639v-2.75h1.055v2.75h1.809v0.953h-1.809v6.844H99.656z"/>
	<path d="M103.463,27.605v-7.825h0.984v1.168c0.435-0.893,1.194-1.339,2.28-1.339v1.067c-0.246,0-0.501,0.053-0.766,0.157
		c-0.264,0.104-0.507,0.253-0.728,0.445c-0.222,0.192-0.399,0.417-0.531,0.675c-0.132,0.258-0.198,0.536-0.198,0.835v4.815H103.463z
		"/>
	<path d="M106.924,23.573c0.006-0.513,0.114-1.007,0.323-1.482s0.501-0.896,0.875-1.265c0.375-0.367,0.819-0.658,1.333-0.87
		c0.514-0.212,1.071-0.318,1.672-0.318c0.57,0,1.155,0.164,1.752,0.491s1.1,0.773,1.508,1.341s0.638,1.192,0.689,1.874
		c0,0.034,0.002,0.086,0.007,0.153c0.005,0.066,0.007,0.114,0.007,0.146c0,0.575-0.108,1.113-0.324,1.616
		c-0.215,0.502-0.516,0.943-0.901,1.322c-0.386,0.379-0.826,0.674-1.321,0.882c-0.495,0.209-1.016,0.313-1.561,0.313
		c-0.658,0-1.302-0.165-1.928-0.494c-0.628-0.329-1.14-0.813-1.537-1.452C107.122,25.19,106.924,24.439,106.924,23.573z
		 M107.95,23.628c0,0.623,0.138,1.169,0.416,1.637c0.277,0.469,0.65,0.833,1.119,1.095c0.468,0.261,0.979,0.405,1.532,0.433
		c0.461,0,0.922-0.124,1.383-0.372c0.46-0.249,0.841-0.612,1.143-1.094c0.301-0.481,0.452-1.047,0.452-1.698
		c0-0.379-0.079-0.746-0.237-1.104s-0.375-0.678-0.654-0.96c-0.278-0.282-0.6-0.505-0.963-0.667
		c-0.364-0.164-0.739-0.246-1.124-0.246c-0.525,0.012-1.02,0.146-1.486,0.404c-0.465,0.257-0.844,0.61-1.132,1.06
		S107.959,23.068,107.95,23.628z"/>
	<path d="M116.481,27.605V17.06h1.054v10.546H116.481z"/>
	<path d="M122.668,23.758c0.006-0.621,0.128-1.191,0.365-1.708c0.237-0.518,0.554-0.958,0.952-1.319
		c0.397-0.361,0.845-0.639,1.343-0.832c0.497-0.192,1.003-0.289,1.515-0.289c1.427,0.035,2.448,0.605,3.064,1.712v-1.513h1.027
		v7.796h-1.027v-1.481c-0.292,0.523-0.714,0.93-1.269,1.219s-1.182,0.434-1.883,0.434c-0.533-0.014-1.045-0.117-1.533-0.308
		c-0.49-0.191-0.929-0.463-1.314-0.816c-0.387-0.353-0.69-0.775-0.911-1.271C122.778,24.889,122.668,24.347,122.668,23.758z
		 M123.75,23.515c0,0.64,0.14,1.206,0.422,1.699c0.281,0.493,0.653,0.872,1.115,1.136c0.461,0.264,0.95,0.402,1.468,0.415
		c0.597,0,1.135-0.145,1.614-0.432c0.48-0.285,0.856-0.66,1.13-1.127c0.271-0.465,0.407-0.947,0.407-1.448
		c0-0.552-0.131-1.062-0.396-1.527c-0.265-0.467-0.628-0.84-1.091-1.119c-0.462-0.279-0.97-0.434-1.522-0.461
		c-0.6,0-1.142,0.149-1.624,0.449c-0.482,0.299-0.858,0.674-1.124,1.123C123.884,22.673,123.75,23.104,123.75,23.515z"/>
	<path d="M132.724,27.605v-7.796h0.998v1.168c0.258-0.429,0.608-0.76,1.055-0.992c0.445-0.231,0.919-0.348,1.422-0.348
		c0.439,0,0.863,0.079,1.271,0.236c0.408,0.158,0.773,0.387,1.096,0.69c0.322,0.301,0.579,0.676,0.771,1.126
		c0.191,0.451,0.287,0.954,0.287,1.511v4.404h-1.026v-4.404c0-0.538-0.115-0.998-0.346-1.38c-0.231-0.382-0.534-0.667-0.908-0.858
		c-0.375-0.189-0.774-0.285-1.198-0.285c-0.416,0-0.803,0.092-1.163,0.273c-0.36,0.183-0.649,0.455-0.871,0.818
		c-0.222,0.362-0.333,0.797-0.333,1.303v4.533H132.724z"/>
	<path d="M140.952,23.344c0.063-0.726,0.29-1.37,0.684-1.932c0.393-0.561,0.885-0.996,1.474-1.307
		c0.589-0.309,1.195-0.475,1.819-0.495c0.658,0,1.273,0.126,1.844,0.379c0.571,0.253,1.035,0.649,1.392,1.19v-4.12h1.054v10.546
		h-0.997v-1.481c-0.372,0.554-0.816,0.969-1.335,1.241c-0.519,0.274-1.152,0.411-1.901,0.411c-0.64-0.028-1.275-0.216-1.904-0.565
		c-0.627-0.349-1.143-0.832-1.543-1.449c-0.399-0.617-0.6-1.313-0.6-2.088C140.938,23.529,140.943,23.42,140.952,23.344z
		 M142.034,23.261c-0.019,0.094-0.028,0.236-0.028,0.428c0,0.514,0.135,1.008,0.403,1.479c0.271,0.471,0.637,0.853,1.104,1.146
		c0.468,0.292,0.986,0.442,1.558,0.452c0.515,0,1.016-0.13,1.501-0.387c0.486-0.258,0.883-0.63,1.188-1.115
		c0.308-0.486,0.461-1.049,0.461-1.689c0-0.344-0.11-0.746-0.329-1.209c-0.219-0.464-0.566-0.864-1.041-1.204
		s-1.067-0.51-1.779-0.51c-0.388,0-0.794,0.086-1.219,0.26c-0.427,0.173-0.809,0.455-1.149,0.849
		C142.363,22.151,142.141,22.652,142.034,23.261z"/>
	<path d="M154.862,27.605V17.06h2.766c0.83,0,1.546,0.088,2.145,0.264c0.601,0.174,1.083,0.482,1.448,0.921
		c0.365,0.439,0.573,1.038,0.624,1.794c0.009,0.067,0.015,0.162,0.015,0.285c0,0.585-0.155,1.106-0.465,1.565
		c-0.31,0.46-0.741,0.817-1.296,1.072s-1.183,0.383-1.887,0.383h-2.296v4.262H154.862z M155.916,17.999v4.405h2.182
		c0.929,0,1.608-0.214,2.042-0.641s0.651-1.002,0.651-1.726c-0.039-0.749-0.326-1.276-0.858-1.581
		c-0.531-0.305-1.257-0.458-2.176-0.458H155.916z"/>
	<path d="M162.92,27.605v-7.825h0.984v1.168c0.434-0.893,1.193-1.339,2.28-1.339v1.067c-0.246,0-0.502,0.053-0.767,0.157
		s-0.508,0.253-0.729,0.445c-0.222,0.192-0.398,0.417-0.531,0.675c-0.132,0.258-0.198,0.536-0.198,0.835v4.815H162.92z"/>
	<path d="M166.402,23.657c0.016-0.624,0.138-1.186,0.367-1.685c0.229-0.498,0.536-0.924,0.924-1.275
		c0.387-0.351,0.815-0.618,1.288-0.802s0.956-0.278,1.453-0.285c0.665,0,1.311,0.162,1.935,0.485
		c0.624,0.324,1.135,0.81,1.532,1.457c0.397,0.648,0.598,1.422,0.598,2.319v0.199h-7.043c0.046,0.577,0.224,1.069,0.532,1.477
		s0.683,0.712,1.122,0.914c0.439,0.2,0.871,0.303,1.296,0.303c0.378,0,0.76-0.076,1.146-0.227c0.385-0.151,0.725-0.358,1.021-0.622
		c0.296-0.263,0.505-0.555,0.628-0.875h1.082c-0.218,0.599-0.536,1.104-0.955,1.519c-0.418,0.415-0.887,0.721-1.405,0.919
		c-0.519,0.199-1.042,0.298-1.571,0.298c-0.693-0.028-1.342-0.214-1.946-0.556s-1.09-0.82-1.455-1.438
		C166.585,25.166,166.402,24.458,166.402,23.657z M173.472,23.132c-0.088-0.45-0.272-0.866-0.555-1.249
		c-0.283-0.383-0.637-0.688-1.064-0.918c-0.428-0.229-0.892-0.342-1.39-0.342c-0.669,0-1.225,0.158-1.667,0.475
		c-0.443,0.316-0.77,0.67-0.978,1.062c-0.21,0.391-0.33,0.715-0.362,0.973H173.472z"/>
	<path d="M177.929,27.605l-3.277-7.796h1.138l2.696,6.458l2.708-6.458h1.141l-3.323,7.796H177.929z"/>
	<path d="M182.508,23.657c0.016-0.624,0.138-1.186,0.367-1.685c0.229-0.498,0.536-0.924,0.923-1.275
		c0.388-0.351,0.816-0.618,1.289-0.802s0.956-0.278,1.453-0.285c0.666,0,1.311,0.162,1.935,0.485
		c0.625,0.324,1.135,0.81,1.532,1.457c0.397,0.648,0.598,1.422,0.598,2.319v0.199h-7.043c0.047,0.577,0.224,1.069,0.532,1.477
		s0.683,0.712,1.123,0.914c0.438,0.2,0.87,0.303,1.295,0.303c0.378,0,0.76-0.076,1.146-0.227c0.385-0.151,0.725-0.358,1.021-0.622
		c0.296-0.263,0.506-0.555,0.628-0.875h1.083c-0.219,0.599-0.537,1.104-0.956,1.519c-0.419,0.415-0.887,0.721-1.406,0.919
		c-0.518,0.199-1.04,0.298-1.57,0.298c-0.693-0.028-1.343-0.214-1.946-0.556c-0.604-0.342-1.09-0.82-1.455-1.438
		C182.69,25.166,182.508,24.458,182.508,23.657z M189.577,23.132c-0.088-0.45-0.272-0.866-0.555-1.249s-0.637-0.688-1.065-0.918
		c-0.428-0.229-0.891-0.342-1.389-0.342c-0.669,0-1.225,0.158-1.667,0.475c-0.443,0.316-0.77,0.67-0.978,1.062
		c-0.21,0.391-0.33,0.715-0.362,0.973H189.577z"/>
	<path d="M191.961,27.605v-7.796h0.998v1.168c0.259-0.429,0.61-0.76,1.055-0.992c0.445-0.231,0.92-0.348,1.423-0.348
		c0.439,0,0.862,0.079,1.271,0.236c0.407,0.158,0.772,0.387,1.095,0.69c0.322,0.301,0.579,0.676,0.771,1.126
		c0.19,0.451,0.286,0.954,0.286,1.511v4.404h-1.026v-4.404c0-0.538-0.115-0.998-0.346-1.38s-0.534-0.667-0.908-0.858
		c-0.374-0.189-0.773-0.285-1.198-0.285c-0.416,0-0.803,0.092-1.163,0.273c-0.359,0.183-0.649,0.455-0.871,0.818
		c-0.222,0.362-0.332,0.797-0.332,1.303v4.533H191.961z"/>
	<path d="M201.134,27.605v-6.844h-1.638v-0.953h1.638v-2.75h1.054v2.75h1.81v0.953h-1.81v6.844H201.134z"/>
	<path d="M204.936,18.87v-1.81h1.054v1.81H204.936z M204.936,27.605v-7.796h1.054v7.796H204.936z"/>
	<path d="M207.384,23.573c0.006-0.513,0.114-1.007,0.322-1.482c0.209-0.476,0.501-0.896,0.875-1.265
		c0.375-0.367,0.819-0.658,1.334-0.87c0.513-0.212,1.07-0.318,1.671-0.318c0.569,0,1.154,0.164,1.752,0.491
		c0.597,0.327,1.1,0.773,1.509,1.341c0.408,0.567,0.637,1.192,0.688,1.874c0,0.034,0.002,0.086,0.007,0.153
		c0.005,0.066,0.008,0.114,0.008,0.146c0,0.575-0.108,1.113-0.325,1.616c-0.215,0.502-0.516,0.943-0.9,1.322
		s-0.825,0.674-1.32,0.882c-0.495,0.209-1.016,0.313-1.561,0.313c-0.658,0-1.302-0.165-1.929-0.494
		c-0.628-0.329-1.14-0.813-1.537-1.452C207.581,25.19,207.384,24.439,207.384,23.573z M208.409,23.628
		c0,0.623,0.139,1.169,0.416,1.637c0.277,0.469,0.649,0.833,1.118,1.095c0.469,0.261,0.979,0.405,1.531,0.433
		c0.461,0,0.923-0.124,1.383-0.372c0.46-0.249,0.841-0.612,1.144-1.094c0.302-0.481,0.452-1.047,0.452-1.698
		c0-0.379-0.079-0.746-0.236-1.104c-0.158-0.358-0.376-0.678-0.655-0.96c-0.278-0.282-0.599-0.505-0.963-0.667
		c-0.364-0.164-0.739-0.246-1.124-0.246c-0.524,0.012-1.019,0.146-1.486,0.404c-0.466,0.257-0.844,0.61-1.132,1.06
		C208.567,22.563,208.418,23.068,208.409,23.628z"/>
	<path d="M216.922,27.605v-7.796h0.999v1.168c0.258-0.429,0.609-0.76,1.055-0.992c0.445-0.231,0.919-0.348,1.423-0.348
		c0.438,0,0.861,0.079,1.271,0.236c0.407,0.158,0.772,0.387,1.095,0.69c0.323,0.301,0.581,0.676,0.771,1.126
		c0.191,0.451,0.286,0.954,0.286,1.511v4.404h-1.024v-4.404c0-0.538-0.117-0.998-0.347-1.38c-0.231-0.382-0.534-0.667-0.908-0.858
		c-0.375-0.189-0.774-0.285-1.199-0.285c-0.415,0-0.803,0.092-1.162,0.273c-0.359,0.183-0.649,0.455-0.872,0.818
		c-0.221,0.362-0.331,0.797-0.331,1.303v4.533H216.922z"/>
</g>
<g>
	<path d="M70.896,35.187c0.056-0.502,0.226-0.945,0.511-1.328c0.285-0.381,0.641-0.676,1.067-0.881
		c0.426-0.205,0.874-0.309,1.342-0.309c0.255,0,0.505,0.031,0.75,0.094c0.244,0.062,0.478,0.156,0.701,0.281
		c0.223,0.127,0.431,0.286,0.622,0.479c0.192,0.192,0.361,0.419,0.506,0.68h-0.626c-0.163-0.213-0.35-0.394-0.561-0.54
		c-0.211-0.147-0.433-0.255-0.665-0.324c-0.232-0.07-0.465-0.104-0.697-0.104c-0.311,0-0.61,0.057-0.898,0.169
		c-0.289,0.11-0.546,0.271-0.773,0.481c-0.227,0.209-0.405,0.461-0.537,0.756c-0.131,0.294-0.197,0.616-0.197,0.966
		c0.005,0.451,0.12,0.855,0.344,1.214c0.224,0.36,0.519,0.641,0.883,0.841c0.365,0.2,0.752,0.303,1.161,0.31
		c0.239-0.007,0.478-0.047,0.715-0.123c0.237-0.075,0.462-0.188,0.676-0.341c0.214-0.152,0.404-0.344,0.571-0.574h0.625
		c-0.205,0.352-0.444,0.644-0.719,0.877c-0.274,0.234-0.569,0.407-0.886,0.52c-0.316,0.112-0.643,0.169-0.982,0.169
		c-0.374,0-0.738-0.068-1.093-0.207c-0.354-0.139-0.673-0.338-0.956-0.598c-0.282-0.26-0.505-0.571-0.667-0.935
		c-0.163-0.364-0.244-0.761-0.244-1.19C70.872,35.438,70.88,35.312,70.896,35.187z"/>
	<path d="M77.285,38.406v-5.646h1.535c0.529,0,0.997,0.074,1.403,0.225c0.406,0.149,0.745,0.357,1.018,0.623
		c0.272,0.265,0.476,0.571,0.611,0.917c0.134,0.346,0.202,0.717,0.202,1.111c-0.004,0.42-0.087,0.801-0.249,1.147
		c-0.162,0.345-0.383,0.639-0.664,0.883c-0.279,0.243-0.594,0.427-0.944,0.553c-0.349,0.124-0.71,0.187-1.081,0.187H77.285z
		 M77.849,33.265v4.621h0.87c0.783,0,1.428-0.184,1.935-0.552c0.506-0.368,0.784-0.934,0.834-1.697c0-0.314-0.054-0.615-0.163-0.898
		c-0.107-0.286-0.272-0.538-0.493-0.761c-0.22-0.222-0.5-0.396-0.838-0.522c-0.338-0.128-0.73-0.19-1.176-0.19H77.849z"/>
	<path d="M82.742,35.187c0.056-0.502,0.227-0.945,0.511-1.328c0.285-0.381,0.641-0.676,1.067-0.881
		c0.426-0.205,0.874-0.309,1.342-0.309c0.255,0,0.506,0.031,0.75,0.094c0.245,0.062,0.479,0.156,0.701,0.281
		c0.223,0.127,0.431,0.286,0.623,0.479c0.191,0.192,0.36,0.419,0.505,0.68h-0.626c-0.163-0.213-0.349-0.394-0.561-0.54
		c-0.211-0.147-0.433-0.255-0.665-0.324c-0.231-0.07-0.464-0.104-0.697-0.104c-0.31,0-0.61,0.057-0.898,0.169
		c-0.289,0.11-0.546,0.271-0.773,0.481c-0.227,0.209-0.405,0.461-0.536,0.756c-0.131,0.294-0.196,0.616-0.196,0.966
		c0.004,0.451,0.119,0.855,0.343,1.214c0.224,0.36,0.519,0.641,0.884,0.841s0.752,0.303,1.16,0.31
		c0.24-0.007,0.478-0.047,0.716-0.123c0.236-0.075,0.462-0.188,0.676-0.341c0.213-0.152,0.403-0.344,0.57-0.574h0.626
		c-0.205,0.352-0.444,0.644-0.719,0.877c-0.274,0.234-0.57,0.407-0.885,0.52c-0.316,0.112-0.644,0.169-0.983,0.169
		c-0.374,0-0.738-0.068-1.092-0.207s-0.673-0.338-0.956-0.598c-0.282-0.26-0.504-0.571-0.667-0.935
		c-0.163-0.364-0.244-0.761-0.244-1.19C82.718,35.438,82.726,35.312,82.742,35.187z"/>
	<path d="M90.829,34.592c0.005-0.422,0.092-0.776,0.262-1.063c0.17-0.287,0.394-0.5,0.67-0.64c0.276-0.141,0.576-0.213,0.898-0.22
		c0.224,0,0.44,0.043,0.648,0.13c0.209,0.088,0.394,0.208,0.556,0.363c0.162,0.155,0.291,0.337,0.385,0.547
		c0.094,0.21,0.142,0.435,0.142,0.676c0,0.564-0.265,1.096-0.794,1.595l-2.021,1.906h2.815v0.521h-3.593v-0.503l2.518-2.45
		c0.35-0.35,0.525-0.706,0.525-1.068c0-0.21-0.052-0.402-0.157-0.578c-0.104-0.175-0.243-0.313-0.415-0.418
		c-0.173-0.104-0.356-0.16-0.549-0.17c-0.369,0-0.682,0.111-0.94,0.333c-0.257,0.223-0.386,0.568-0.386,1.04H90.829z"/>
	<path d="M97.454,32.761h0.703v4.097h0.505v0.503h-0.505v1.046h-0.564V37.36h-2.846v-0.503L97.454,32.761z M97.592,33.531
		l-2.205,3.326h2.205V33.531z"/>
	<path d="M98.927,39.375l2.206-6.614h0.518l-2.235,6.614H98.927z"/>
	<path d="M102.703,38.406l2.328-5.142h-2.671v-0.504h3.265v0.504l-2.318,5.142H102.703z"/>
	<path d="M106.315,34.515h0.564v0.953h-0.564V34.515z M106.315,37.438h0.564v0.969h-0.564V37.438z"/>
	<path d="M110.39,36.826c0.013,0.245,0.075,0.452,0.188,0.621c0.112,0.169,0.257,0.296,0.436,0.381
		c0.179,0.084,0.368,0.127,0.566,0.127c0.184,0,0.361-0.049,0.532-0.147c0.17-0.098,0.308-0.229,0.412-0.396
		c0.103-0.166,0.155-0.347,0.155-0.538c0-0.235-0.06-0.443-0.177-0.626c-0.111-0.176-0.321-0.317-0.627-0.424
		c-0.307-0.105-0.608-0.208-0.903-0.307s-0.536-0.248-0.725-0.448c-0.188-0.198-0.283-0.489-0.283-0.874
		c0-0.015,0.001-0.038,0.004-0.067c0.003-0.029,0.005-0.058,0.005-0.085c0.015-0.27,0.097-0.509,0.245-0.718
		c0.148-0.21,0.339-0.37,0.576-0.485c0.236-0.112,0.483-0.17,0.741-0.17c0.305,0,0.578,0.075,0.816,0.223
		c0.238,0.148,0.423,0.335,0.553,0.56c0.13,0.226,0.194,0.444,0.194,0.66v0.075h-0.565c-0.042-0.314-0.152-0.547-0.332-0.7
		s-0.397-0.242-0.653-0.268c-0.177,0-0.34,0.039-0.491,0.115c-0.152,0.077-0.274,0.181-0.369,0.313
		c-0.093,0.132-0.145,0.273-0.153,0.425c0,0.354,0.091,0.599,0.276,0.735s0.479,0.262,0.88,0.379
		c0.403,0.116,0.728,0.26,0.977,0.431c0.249,0.17,0.427,0.459,0.535,0.867c0.021,0.149,0.031,0.269,0.031,0.357
		c0,0.19-0.036,0.385-0.109,0.582c-0.072,0.196-0.178,0.375-0.319,0.536c-0.14,0.16-0.318,0.29-0.532,0.389
		s-0.456,0.148-0.727,0.148c-0.263,0-0.505-0.043-0.725-0.13c-0.22-0.086-0.409-0.207-0.567-0.361
		c-0.157-0.153-0.277-0.332-0.359-0.534c-0.083-0.202-0.124-0.416-0.124-0.646H110.39z"/>
	<path d="M113.796,36.346c0.004-0.332,0.069-0.638,0.196-0.914c0.126-0.276,0.296-0.513,0.509-0.706
		c0.213-0.193,0.453-0.342,0.719-0.445c0.266-0.103,0.537-0.154,0.812-0.154c0.764,0.019,1.311,0.323,1.64,0.916v-0.81h0.549v4.174
		h-0.549v-0.793c-0.156,0.279-0.383,0.497-0.679,0.652c-0.297,0.153-0.633,0.231-1.007,0.231c-0.286-0.007-0.56-0.063-0.822-0.165
		c-0.262-0.103-0.497-0.247-0.703-0.437c-0.207-0.189-0.37-0.416-0.488-0.68C113.856,36.951,113.796,36.661,113.796,36.346z
		 M114.376,36.215c0,0.344,0.075,0.647,0.226,0.911c0.15,0.264,0.35,0.466,0.597,0.608c0.247,0.142,0.509,0.214,0.786,0.221
		c0.318,0,0.606-0.077,0.863-0.23c0.257-0.153,0.459-0.354,0.605-0.603c0.145-0.25,0.218-0.508,0.218-0.776
		c0-0.295-0.07-0.567-0.211-0.817c-0.142-0.25-0.337-0.449-0.584-0.599s-0.52-0.231-0.814-0.247c-0.322,0-0.612,0.08-0.87,0.24
		c-0.258,0.161-0.459,0.36-0.602,0.602C114.447,35.765,114.376,35.996,114.376,36.215z"/>
	<path d="M120.532,38.406l-1.755-4.174h0.608l1.444,3.456l1.45-3.456h0.61l-1.779,4.174H120.532z"/>
	<path d="M123.445,33.729v-0.968h0.565v0.968H123.445z M123.445,38.406v-4.174h0.565v4.174H123.445z"/>
	<path d="M125.024,38.406v-4.174h0.535v0.626c0.138-0.229,0.325-0.407,0.564-0.531c0.238-0.125,0.491-0.187,0.762-0.187
		c0.234,0,0.461,0.043,0.68,0.127s0.414,0.208,0.587,0.368c0.172,0.161,0.31,0.363,0.412,0.604c0.103,0.241,0.154,0.511,0.154,0.809
		v2.358h-0.55v-2.358c0-0.288-0.063-0.534-0.186-0.737c-0.124-0.205-0.286-0.358-0.486-0.461c-0.2-0.101-0.415-0.151-0.642-0.151
		c-0.223,0-0.43,0.048-0.623,0.146c-0.191,0.098-0.348,0.243-0.466,0.438c-0.119,0.194-0.178,0.427-0.178,0.698v2.427H125.024z"/>
	<path d="M129.51,36.309c0-0.438,0.103-0.82,0.308-1.149c0.204-0.329,0.465-0.582,0.783-0.759c0.319-0.178,0.645-0.268,0.977-0.274
		c0.255,0,0.496,0.038,0.726,0.113c0.229,0.076,0.432,0.185,0.607,0.327c0.176,0.142,0.309,0.306,0.399,0.491v-0.841h0.534v3.829
		c0,0.32-0.055,0.604-0.166,0.851c-0.111,0.245-0.263,0.45-0.456,0.612c-0.192,0.164-0.412,0.287-0.66,0.368
		c-0.247,0.082-0.505,0.123-0.77,0.123c-0.239,0-0.472-0.032-0.701-0.097c-0.229-0.064-0.439-0.16-0.631-0.287
		s-0.358-0.284-0.497-0.475c-0.14-0.188-0.239-0.403-0.301-0.645h0.55c0.137,0.32,0.347,0.564,0.63,0.732
		c0.282,0.167,0.588,0.251,0.918,0.251c0.273,0,0.528-0.057,0.765-0.17c0.237-0.114,0.427-0.28,0.57-0.5
		c0.144-0.222,0.215-0.48,0.215-0.779v-0.456c-0.33,0.614-0.873,0.922-1.625,0.922c-0.261,0-0.52-0.048-0.776-0.144
		c-0.258-0.096-0.491-0.236-0.702-0.425c-0.209-0.188-0.377-0.42-0.502-0.696C129.578,36.957,129.514,36.648,129.51,36.309z
		 M130.075,36.2c0,0.351,0.072,0.657,0.214,0.922c0.145,0.266,0.337,0.468,0.579,0.61c0.241,0.144,0.51,0.216,0.801,0.223
		c0.229,0,0.473-0.06,0.728-0.18c0.255-0.119,0.472-0.307,0.647-0.564c0.177-0.257,0.266-0.579,0.266-0.964
		c0-0.195-0.043-0.387-0.13-0.576c-0.087-0.188-0.207-0.358-0.362-0.507c-0.153-0.147-0.334-0.267-0.54-0.352
		c-0.206-0.087-0.425-0.13-0.653-0.13c-0.399,0.01-0.714,0.114-0.943,0.313c-0.23,0.197-0.389,0.415-0.476,0.649
		S130.075,36.065,130.075,36.2z"/>
	<path d="M137.429,37.903l2.344-0.018v0.521h-2.907v-5.646h0.563V37.903z"/>
	<path d="M140.335,33.729v-0.968h0.564v0.968H140.335z M140.335,38.406v-4.174h0.564v4.174H140.335z"/>
	<path d="M143.201,38.406l-1.753-4.174h0.608l1.442,3.456l1.45-3.456h0.61l-1.778,4.174H143.201z"/>
	<path d="M145.73,36.292c0.008-0.334,0.073-0.635,0.195-0.901c0.122-0.268,0.288-0.495,0.495-0.684
		c0.207-0.188,0.437-0.331,0.69-0.429c0.252-0.098,0.511-0.148,0.777-0.152c0.355,0,0.701,0.087,1.035,0.26s0.607,0.434,0.82,0.78
		c0.214,0.347,0.32,0.761,0.32,1.241v0.106h-3.771c0.025,0.31,0.12,0.572,0.285,0.791c0.165,0.218,0.365,0.381,0.601,0.488
		c0.235,0.108,0.467,0.162,0.694,0.162c0.201,0,0.405-0.04,0.612-0.121s0.389-0.191,0.546-0.332c0.159-0.142,0.271-0.298,0.338-0.47
		h0.578c-0.117,0.321-0.287,0.593-0.511,0.813c-0.225,0.222-0.476,0.386-0.753,0.492s-0.558,0.159-0.841,0.159
		c-0.371-0.015-0.72-0.114-1.042-0.297c-0.324-0.184-0.583-0.439-0.778-0.771C145.827,37.099,145.73,36.721,145.73,36.292z
		 M149.514,36.01c-0.047-0.24-0.145-0.463-0.297-0.668c-0.15-0.205-0.34-0.368-0.57-0.49c-0.229-0.122-0.476-0.184-0.743-0.184
		c-0.357,0-0.655,0.085-0.892,0.254c-0.238,0.17-0.413,0.358-0.523,0.567c-0.112,0.21-0.177,0.383-0.194,0.521H149.514z"/>
	<path d="M150.685,35.453c-0.006-0.04-0.008-0.097-0.008-0.167c0-0.242,0.061-0.45,0.182-0.623c0.12-0.175,0.271-0.306,0.453-0.392
		c0.182-0.087,0.359-0.131,0.532-0.131c0.14,0,0.28,0.024,0.42,0.071c0.139,0.046,0.266,0.116,0.381,0.21
		c0.114,0.093,0.208,0.212,0.279,0.354c0.071,0.143,0.111,0.306,0.118,0.486h-0.571c-0.011-0.199-0.074-0.347-0.192-0.439
		c-0.119-0.093-0.264-0.14-0.434-0.14c-0.15,0-0.29,0.05-0.419,0.146c-0.13,0.099-0.199,0.242-0.206,0.433
		c0.001,0.005,0.007,0.036,0.021,0.095c0.013,0.058,0.021,0.095,0.024,0.111c0.039,0.138,0.17,0.254,0.394,0.346
		c0.224,0.093,0.449,0.182,0.676,0.267c0.227,0.086,0.418,0.211,0.574,0.376s0.235,0.399,0.235,0.706
		c0,0.052-0.007,0.128-0.018,0.229c-0.03,0.257-0.115,0.469-0.254,0.636c-0.139,0.166-0.302,0.286-0.49,0.36
		c-0.188,0.074-0.372,0.11-0.553,0.11c-0.253,0-0.479-0.058-0.676-0.173c-0.2-0.116-0.354-0.274-0.465-0.474
		c-0.109-0.199-0.165-0.422-0.165-0.665l0.566-0.017c0.007,0.239,0.089,0.434,0.242,0.584c0.155,0.148,0.331,0.227,0.529,0.233
		c0.198-0.017,0.368-0.094,0.508-0.23c0.14-0.136,0.209-0.3,0.209-0.494c0-0.17-0.056-0.326-0.168-0.466s-0.285-0.238-0.52-0.298
		c-0.318-0.085-0.59-0.204-0.815-0.358C150.849,35.985,150.72,35.757,150.685,35.453z"/>
	<path d="M154.513,37.438h0.565l-0.687,1.471h-0.551L154.513,37.438z"/>
	<path d="M157.795,38.406v-5.646h1.481c0.444,0,0.826,0.047,1.147,0.141c0.32,0.094,0.579,0.258,0.775,0.494
		c0.195,0.234,0.307,0.555,0.334,0.96c0.006,0.036,0.007,0.087,0.007,0.152c0,0.313-0.082,0.592-0.248,0.838
		s-0.396,0.437-0.693,0.573c-0.297,0.138-0.634,0.206-1.01,0.206h-1.229v2.281H157.795z M158.36,33.265v2.357h1.168
		c0.496,0,0.86-0.115,1.093-0.344c0.231-0.228,0.348-0.537,0.348-0.923c-0.021-0.401-0.174-0.685-0.458-0.847
		c-0.286-0.164-0.674-0.244-1.166-0.244H158.36z"/>
	<path d="M162.18,38.406v-4.189h0.526v0.626c0.232-0.478,0.639-0.717,1.221-0.717v0.572c-0.133,0-0.269,0.027-0.41,0.083
		c-0.141,0.057-0.271,0.135-0.391,0.238c-0.118,0.103-0.213,0.224-0.284,0.361c-0.07,0.139-0.105,0.287-0.105,0.448v2.577H162.18z"
		/>
	<path d="M164.11,36.247c0.003-0.274,0.062-0.539,0.172-0.794c0.112-0.254,0.27-0.479,0.47-0.677c0.2-0.195,0.438-0.352,0.713-0.466
		c0.274-0.112,0.573-0.17,0.895-0.17c0.306,0,0.619,0.088,0.938,0.263c0.32,0.176,0.589,0.414,0.809,0.718
		c0.218,0.304,0.341,0.639,0.367,1.004c0,0.019,0.002,0.045,0.005,0.081c0.002,0.037,0.004,0.063,0.004,0.078
		c0,0.309-0.059,0.597-0.174,0.865c-0.114,0.269-0.276,0.504-0.481,0.709c-0.206,0.202-0.442,0.359-0.707,0.471
		c-0.266,0.111-0.544,0.168-0.835,0.168c-0.354,0-0.698-0.088-1.034-0.265c-0.335-0.176-0.608-0.436-0.821-0.777
		S164.11,36.711,164.11,36.247z M164.66,36.276c0,0.334,0.073,0.626,0.223,0.876c0.147,0.251,0.348,0.447,0.598,0.586
		c0.252,0.14,0.524,0.217,0.819,0.231c0.248,0,0.494-0.066,0.741-0.198c0.246-0.134,0.449-0.328,0.611-0.586
		c0.161-0.257,0.242-0.561,0.242-0.909c0-0.202-0.043-0.399-0.127-0.592c-0.084-0.191-0.201-0.362-0.351-0.513
		c-0.147-0.151-0.32-0.271-0.516-0.358s-0.395-0.131-0.602-0.131c-0.28,0.006-0.546,0.077-0.795,0.215
		c-0.249,0.139-0.451,0.328-0.606,0.569C164.744,35.708,164.664,35.977,164.66,36.276z"/>
	<path d="M169.546,38.406v-3.665h-0.878v-0.509h0.878v-1.472h0.563v1.472h0.969v0.509h-0.969v3.665H169.546z"/>
	<path d="M171.288,36.292c0.01-0.334,0.074-0.635,0.197-0.901c0.122-0.268,0.286-0.495,0.494-0.684
		c0.207-0.188,0.438-0.331,0.689-0.429c0.253-0.098,0.513-0.148,0.778-0.152c0.355,0,0.701,0.087,1.035,0.26s0.608,0.434,0.82,0.78
		c0.213,0.347,0.32,0.761,0.32,1.241v0.106h-3.77c0.024,0.31,0.119,0.572,0.284,0.791c0.165,0.218,0.366,0.381,0.601,0.488
		c0.235,0.108,0.467,0.162,0.693,0.162c0.203,0,0.407-0.04,0.613-0.121s0.389-0.191,0.547-0.332c0.157-0.142,0.271-0.298,0.336-0.47
		h0.58c-0.117,0.321-0.288,0.593-0.513,0.813c-0.224,0.222-0.475,0.386-0.752,0.492s-0.558,0.159-0.841,0.159
		c-0.371-0.015-0.718-0.114-1.043-0.297c-0.322-0.184-0.582-0.439-0.777-0.771C171.386,37.099,171.288,36.721,171.288,36.292z
		 M175.073,36.01c-0.048-0.24-0.146-0.463-0.297-0.668s-0.341-0.368-0.57-0.49s-0.478-0.184-0.743-0.184
		c-0.358,0-0.656,0.085-0.893,0.254c-0.237,0.17-0.412,0.358-0.524,0.567c-0.111,0.21-0.176,0.383-0.192,0.521H175.073z"/>
	<path d="M176.226,36.309c0.004-0.331,0.066-0.63,0.188-0.897c0.123-0.269,0.288-0.496,0.494-0.684
		c0.207-0.188,0.437-0.333,0.689-0.434c0.252-0.101,0.511-0.157,0.772-0.168c0.477,0,0.912,0.111,1.307,0.336
		s0.684,0.564,0.866,1.022h-0.642c-0.151-0.26-0.358-0.457-0.619-0.595c-0.261-0.139-0.565-0.207-0.912-0.207
		c-0.316,0.021-0.593,0.107-0.831,0.261s-0.42,0.351-0.548,0.592s-0.195,0.499-0.201,0.773c0,0.297,0.071,0.569,0.213,0.817
		c0.143,0.248,0.34,0.446,0.592,0.595c0.252,0.147,0.531,0.226,0.836,0.234c0.321,0,0.614-0.072,0.879-0.217
		c0.264-0.145,0.466-0.33,0.609-0.553h0.624c-0.455,0.874-1.148,1.312-2.082,1.312c-0.281,0-0.556-0.052-0.822-0.157
		c-0.269-0.105-0.51-0.255-0.724-0.452c-0.215-0.195-0.385-0.427-0.511-0.692s-0.189-0.551-0.193-0.857
		c0.006-0.005,0.011-0.012,0.012-0.018C176.224,36.315,176.226,36.312,176.226,36.309z"/>
	<path d="M181.689,38.406v-3.665h-0.878v-0.509h0.878v-1.472h0.564v1.472h0.968v0.509h-0.968v3.665H181.689z"/>
	<path d="M183.793,33.729v-0.968h0.563v0.968H183.793z M183.793,38.406v-4.174h0.563v4.174H183.793z"/>
	<path d="M185.373,38.406v-4.174h0.534v0.626c0.138-0.229,0.325-0.407,0.563-0.531c0.238-0.125,0.492-0.187,0.762-0.187
		c0.235,0,0.462,0.043,0.68,0.127c0.219,0.084,0.414,0.208,0.587,0.368c0.173,0.161,0.31,0.363,0.412,0.604
		c0.103,0.241,0.155,0.511,0.155,0.809v2.358h-0.551v-2.358c0-0.288-0.062-0.534-0.186-0.737c-0.123-0.205-0.285-0.358-0.485-0.461
		c-0.2-0.101-0.415-0.151-0.642-0.151c-0.223,0-0.43,0.048-0.622,0.146s-0.349,0.243-0.467,0.438s-0.178,0.427-0.178,0.698v2.427
		H185.373z"/>
	<path d="M189.857,36.309c0-0.438,0.103-0.82,0.307-1.149s0.466-0.582,0.784-0.759c0.319-0.178,0.644-0.268,0.978-0.274
		c0.254,0,0.495,0.038,0.725,0.113c0.229,0.076,0.432,0.185,0.607,0.327c0.176,0.142,0.309,0.306,0.399,0.491v-0.841h0.534v3.829
		c0,0.32-0.056,0.604-0.167,0.851c-0.11,0.245-0.262,0.45-0.454,0.612c-0.193,0.164-0.414,0.287-0.661,0.368
		c-0.247,0.082-0.505,0.123-0.771,0.123c-0.238,0-0.472-0.032-0.699-0.097c-0.229-0.064-0.439-0.16-0.633-0.287
		c-0.192-0.127-0.357-0.284-0.496-0.475c-0.139-0.188-0.239-0.403-0.3-0.645h0.548c0.138,0.32,0.347,0.564,0.63,0.732
		c0.283,0.167,0.588,0.251,0.919,0.251c0.272,0,0.528-0.057,0.765-0.17c0.236-0.114,0.427-0.28,0.569-0.5
		c0.145-0.222,0.216-0.48,0.216-0.779v-0.456c-0.33,0.614-0.872,0.922-1.626,0.922c-0.26,0-0.519-0.048-0.776-0.144
		c-0.257-0.096-0.491-0.236-0.7-0.425c-0.21-0.188-0.379-0.42-0.503-0.696C189.926,36.957,189.862,36.648,189.857,36.309z
		 M190.422,36.2c0,0.351,0.071,0.657,0.215,0.922c0.144,0.266,0.336,0.468,0.578,0.61c0.243,0.144,0.51,0.216,0.801,0.223
		c0.23,0,0.473-0.06,0.728-0.18c0.256-0.119,0.472-0.307,0.648-0.564c0.177-0.257,0.266-0.579,0.266-0.964
		c0-0.195-0.044-0.387-0.131-0.576c-0.087-0.188-0.207-0.358-0.36-0.507c-0.154-0.147-0.335-0.267-0.542-0.352
		c-0.207-0.087-0.425-0.13-0.652-0.13c-0.399,0.01-0.714,0.114-0.944,0.313c-0.229,0.197-0.388,0.415-0.475,0.649
		S190.422,36.065,190.422,36.2z"/>
	<path d="M197.212,38.406v-5.646h1.48c0.444,0,0.827,0.047,1.148,0.141s0.58,0.258,0.774,0.494c0.196,0.234,0.308,0.555,0.335,0.96
		c0.006,0.036,0.007,0.087,0.007,0.152c0,0.313-0.082,0.592-0.248,0.838s-0.397,0.437-0.693,0.573
		c-0.297,0.138-0.634,0.206-1.01,0.206h-1.229v2.281H197.212z M197.776,33.265v2.357h1.169c0.496,0,0.859-0.115,1.093-0.344
		c0.231-0.228,0.348-0.537,0.348-0.923c-0.021-0.401-0.175-0.685-0.458-0.847c-0.286-0.164-0.674-0.244-1.166-0.244H197.776z"/>
	<path d="M201.332,36.292c0.009-0.334,0.075-0.635,0.197-0.901c0.121-0.268,0.286-0.495,0.494-0.684
		c0.207-0.188,0.438-0.331,0.69-0.429s0.512-0.148,0.777-0.152c0.356,0,0.702,0.087,1.036,0.26c0.333,0.173,0.607,0.434,0.819,0.78
		c0.213,0.347,0.32,0.761,0.32,1.241v0.106h-3.771c0.026,0.31,0.12,0.572,0.286,0.791c0.164,0.218,0.365,0.381,0.6,0.488
		c0.235,0.108,0.467,0.162,0.693,0.162c0.203,0,0.408-0.04,0.613-0.121c0.207-0.081,0.388-0.191,0.547-0.332
		c0.158-0.142,0.271-0.298,0.336-0.47h0.579c-0.116,0.321-0.287,0.593-0.511,0.813c-0.225,0.222-0.476,0.386-0.753,0.492
		s-0.557,0.159-0.84,0.159c-0.373-0.015-0.72-0.114-1.043-0.297c-0.323-0.184-0.582-0.439-0.778-0.771
		S201.332,36.721,201.332,36.292z M205.117,36.01c-0.048-0.24-0.146-0.463-0.296-0.668c-0.152-0.205-0.342-0.368-0.571-0.49
		c-0.229-0.122-0.478-0.184-0.744-0.184c-0.357,0-0.654,0.085-0.892,0.254c-0.237,0.17-0.412,0.358-0.524,0.567
		c-0.111,0.21-0.176,0.383-0.193,0.521H205.117z"/>
	<path d="M206.266,36.247c0.005-0.274,0.063-0.539,0.174-0.794c0.111-0.254,0.269-0.479,0.468-0.677
		c0.201-0.195,0.439-0.352,0.714-0.466c0.274-0.112,0.573-0.17,0.895-0.17c0.307,0,0.619,0.088,0.938,0.263
		c0.32,0.176,0.589,0.414,0.809,0.718c0.218,0.304,0.341,0.639,0.367,1.004c0,0.019,0.002,0.045,0.005,0.081
		c0.002,0.037,0.004,0.063,0.004,0.078c0,0.309-0.059,0.597-0.174,0.865c-0.114,0.269-0.275,0.504-0.481,0.709
		c-0.206,0.202-0.443,0.359-0.706,0.471c-0.266,0.111-0.545,0.168-0.837,0.168c-0.353,0-0.697-0.088-1.033-0.265
		c-0.335-0.176-0.608-0.436-0.821-0.777C206.373,37.113,206.266,36.711,206.266,36.247z M206.815,36.276
		c0,0.334,0.074,0.626,0.224,0.876c0.147,0.251,0.347,0.447,0.598,0.586c0.251,0.14,0.524,0.217,0.819,0.231
		c0.248,0,0.494-0.066,0.74-0.198c0.247-0.134,0.451-0.328,0.612-0.586c0.161-0.257,0.242-0.561,0.242-0.909
		c0-0.202-0.043-0.399-0.127-0.592c-0.084-0.191-0.2-0.362-0.35-0.513c-0.149-0.151-0.321-0.271-0.516-0.358
		c-0.195-0.088-0.396-0.131-0.603-0.131c-0.28,0.006-0.546,0.077-0.795,0.215c-0.25,0.139-0.451,0.328-0.606,0.569
		C206.901,35.708,206.82,35.977,206.815,36.276z"/>
	<path d="M211.449,39.862v-5.646h0.54v0.749c0.126-0.183,0.271-0.336,0.439-0.458c0.166-0.123,0.348-0.216,0.543-0.279
		c0.196-0.062,0.4-0.096,0.612-0.103c0.283,0,0.561,0.051,0.83,0.151c0.271,0.102,0.514,0.244,0.729,0.43
		c0.217,0.186,0.389,0.407,0.517,0.667c0.13,0.26,0.198,0.54,0.205,0.841c0,0.334-0.056,0.639-0.169,0.916
		c-0.112,0.275-0.272,0.516-0.479,0.719c-0.206,0.204-0.444,0.361-0.712,0.472s-0.554,0.169-0.859,0.176
		c-0.365,0-0.693-0.078-0.986-0.235c-0.292-0.157-0.505-0.376-0.638-0.657v2.258H211.449z M211.976,36.346
		c0.006,0.247,0.068,0.492,0.187,0.734c0.118,0.243,0.305,0.447,0.557,0.613c0.251,0.166,0.563,0.253,0.935,0.262
		c0.283,0,0.55-0.07,0.801-0.211c0.25-0.141,0.451-0.336,0.601-0.585c0.149-0.251,0.224-0.529,0.224-0.836
		c0-0.29-0.073-0.562-0.219-0.813c-0.147-0.251-0.349-0.452-0.605-0.601c-0.257-0.151-0.542-0.227-0.855-0.227
		c-0.323,0.011-0.609,0.095-0.856,0.251c-0.246,0.156-0.437,0.361-0.569,0.613C212.041,35.8,211.976,36.066,211.976,36.346z"/>
	<path d="M216.664,38.406v-5.646h0.564v5.646H216.664z"/>
	<path d="M218.054,36.292c0.01-0.334,0.075-0.635,0.197-0.901c0.122-0.268,0.286-0.495,0.494-0.684
		c0.207-0.188,0.438-0.331,0.69-0.429s0.512-0.148,0.778-0.152c0.355,0,0.701,0.087,1.034,0.26c0.335,0.173,0.608,0.434,0.821,0.78
		c0.212,0.347,0.318,0.761,0.318,1.241v0.106h-3.769c0.024,0.31,0.119,0.572,0.285,0.791c0.165,0.218,0.365,0.381,0.6,0.488
		c0.235,0.108,0.467,0.162,0.693,0.162c0.204,0,0.408-0.04,0.613-0.121c0.206-0.081,0.389-0.191,0.547-0.332
		c0.158-0.142,0.271-0.298,0.336-0.47h0.58c-0.117,0.321-0.288,0.593-0.512,0.813c-0.225,0.222-0.475,0.386-0.752,0.492
		s-0.558,0.159-0.842,0.159c-0.371-0.015-0.718-0.114-1.042-0.297c-0.323-0.184-0.582-0.439-0.778-0.771
		C218.152,37.099,218.054,36.721,218.054,36.292z M221.839,36.01c-0.047-0.24-0.146-0.463-0.297-0.668s-0.34-0.368-0.569-0.49
		s-0.479-0.184-0.744-0.184c-0.358,0-0.655,0.085-0.893,0.254c-0.237,0.17-0.412,0.358-0.524,0.567
		c-0.111,0.21-0.175,0.383-0.192,0.521H221.839z"/>
	<path d="M223.699,33.219h-1.023v-0.458h2.602v0.458h-1.015v2.761h-0.563V33.219z M225.85,35.979v-3.219h0.814l0.924,2.265
		l0.954-2.265h0.816v3.219h-0.503v-2.761l-1.114,2.761h-0.298l-1.092-2.761v2.761H225.85z"/>
</g>
</svg>
